<?xml version="1.0" standalone="no"?>
<!DOCTYPE svg PUBLIC "-//W3C//DTD SVG 20010904//EN"
 "http://www.w3.org/TR/2001/REC-SVG-20010904/DTD/svg10.dtd">
<svg version="1.0" xmlns="http://www.w3.org/2000/svg"
 width="1024.000000pt" height="1024.000000pt" viewBox="0 0 1024.000000 1024.000000"
 preserveAspectRatio="xMidYMid meet">

<g transform="translate(0.000000,1024.000000) scale(0.100000,-0.100000)"
fill="#000000" stroke="none">
<path d="M5610 7721 c-75 -20 -276 -100 -370 -146 l-65 -33 -170 44 c-234 61
-236 61 -376 80 -266 36 -326 -1 -451 -279 -50 -114 -178 -479 -218 -623 -12
-43 -30 -109 -41 -145 l-19 -67 -48 -6 c-383 -52 -733 -166 -842 -275 -130
-130 -40 -254 265 -361 145 -51 481 -130 555 -130 41 0 48 -12 54 -85 3 -39 9
-93 12 -121 l6 -52 -58 -17 c-33 -10 -84 -24 -114 -31 -66 -18 -288 -95 -355
-125 -117 -52 -124 -104 -36 -283 32 -67 101 -193 153 -281 52 -88 143 -242
203 -343 59 -100 106 -184 104 -186 -2 -2 -62 -30 -134 -61 -385 -170 -849
-436 -1013 -581 -42 -37 -52 -52 -50 -73 6 -51 55 -35 258 86 301 178 666 367
919 475 76 33 98 38 113 29 41 -26 98 2 98 48 0 25 -80 173 -212 391 -227 376
-348 594 -348 630 0 37 174 103 445 168 405 98 545 112 580 59 15 -23 16 -28
39 -182 45 -294 120 -608 228 -960 57 -184 61 -202 54 -228 -10 -43 -248 -429
-484 -787 -145 -220 -161 -259 -123 -294 49 -44 80 -11 330 363 223 334 440
696 666 1111 153 282 189 342 227 386 50 57 86 71 358 143 332 88 605 163 840
231 328 95 344 100 347 96 2 -2 -17 -51 -42 -110 -25 -58 -81 -197 -125 -309
-45 -111 -85 -211 -90 -222 -5 -11 -25 -65 -45 -120 -21 -55 -61 -161 -90
-236 -50 -128 -60 -178 -39 -199 11 -11 221 -114 294 -145 30 -12 181 -75 335
-140 278 -117 418 -170 464 -177 43 -6 32 17 -26 56 -51 34 -505 262 -825 415
-60 28 -108 55 -108 60 0 11 41 123 79 216 16 39 89 223 161 410 73 187 155
394 182 459 72 175 61 206 -81 226 -40 6 -76 12 -80 14 -20 13 -448 76 -513
76 l-38 0 0 124 c0 69 4 127 9 130 5 3 26 8 47 11 22 4 46 8 54 10 8 2 29 7
45 9 196 34 493 114 621 168 44 18 95 49 117 70 37 35 39 40 35 82 -3 24 -14
55 -24 70 -57 78 -371 194 -724 266 -85 17 -155 32 -156 33 -1 1 -16 63 -34
137 -40 165 -143 480 -202 615 -101 233 -182 354 -270 405 -46 26 -63 30 -123
29 -38 0 -99 -9 -135 -18z m219 -100 c118 -84 298 -500 402 -928 21 -90 39
-172 39 -183 0 -32 46 -73 74 -66 55 14 466 -93 656 -171 92 -37 150 -72 150
-89 0 -14 -113 -66 -203 -93 -95 -29 -308 -78 -435 -101 -192 -34 -300 -51
-417 -65 -27 -3 -79 -10 -115 -15 -416 -60 -1153 -95 -1490 -71 -91 6 -194 13
-230 16 -97 6 -334 34 -430 51 -444 79 -737 177 -748 251 -4 25 53 73 136 112
143 69 496 163 670 178 40 3 79 11 87 17 9 6 31 67 49 136 78 291 132 460 219
682 103 263 139 302 273 300 136 -3 311 -39 696 -141 191 -52 358 -76 358 -52
0 8 -41 25 -222 93 -37 14 -35 21 10 42 50 24 267 105 312 116 55 14 124 6
159 -19z m401 -2009 c0 -42 -5 -117 -11 -167 -5 -49 -12 -108 -14 -130 -9 -85
2 -77 -192 -129 -524 -140 -570 -154 -636 -189 -91 -48 -125 -97 -325 -467
-58 -107 -111 -203 -118 -213 -11 -17 -15 -9 -37 65 -23 75 -90 336 -101 391
-2 12 -11 56 -20 97 -8 41 -18 98 -21 125 -4 28 -14 88 -22 135 -20 104 -22
384 -4 418 11 21 17 22 163 22 l150 0 59 -54 c76 -70 146 -98 243 -95 128 4
212 45 280 138 33 45 42 51 84 56 26 3 79 10 117 15 39 6 88 12 110 15 60 7
269 45 274 50 13 14 21 -16 21 -83z"/>
<path d="M4056 6311 c-5 -7 74 -25 199 -46 362 -60 1109 -90 1525 -61 129 9
267 21 305 27 181 26 395 63 406 70 29 18 -5 20 -118 9 -480 -47 -1165 -64
-1623 -40 -102 5 -225 12 -275 14 -79 4 -208 15 -367 31 -26 3 -49 1 -52 -4z"/>
<path d="M5578 4743 c-14 -16 -43 -59 -65 -98 -91 -159 -367 -704 -360 -711 7
-7 125 165 215 313 46 76 119 210 163 298 99 202 116 272 47 198z"/>
</g>
</svg>
